<?xml version="1.0" standalone="no"?>
<!DOCTYPE svg PUBLIC "-//W3C//DTD SVG 20010904//EN"
 "http://www.w3.org/TR/2001/REC-SVG-20010904/DTD/svg10.dtd">
<svg version="1.0" xmlns="http://www.w3.org/2000/svg"
 width="704.000000pt" height="704.000000pt" viewBox="0 0 704.000000 704.000000"
 preserveAspectRatio="xMidYMid meet">
<metadata>
Created by potrace 1.11, written by Peter Selinger 2001-2013
</metadata>
<g transform="translate(0.000000,704.000000) scale(0.100000,-0.100000)"
fill="#000000" stroke="none">
<path d="M3770 6816 c0 -2 7 -7 16 -10 8 -3 12 -2 9 4 -6 10 -25 14 -25 6z"/>
<path d="M3900 6781 c161 -48 298 -108 393 -168 23 -15 44 -28 47 -28 5 -1 77
-51 124 -88 48 -37 180 -169 227 -227 135 -164 258 -422 295 -613 2 -12 6 -33
9 -47 5 -28 15 -99 21 -145 5 -39 4 -229 -1 -280 -7 -72 -23 -166 -37 -220 -5
-22 -11 -47 -13 -55 -7 -35 -69 -195 -77 -198 -4 -2 -8 -10 -8 -18 0 -14 -77
-163 -90 -174 -3 -3 -23 -32 -45 -65 -71 -106 -333 -355 -374 -355 -5 0 -11
-4 -13 -8 -4 -10 -110 -73 -168 -100 -114 -52 -220 -92 -286 -107 -10 -2 -57
-14 -104 -25 -47 -11 -107 -22 -135 -25 -27 -3 -52 -10 -55 -14 -4 -7 -5 -267
-1 -292 1 -3 20 -12 44 -19 160 -47 282 -173 315 -325 10 -42 6 -195 -6 -225
-9 -23 -5 -27 42 -54 28 -16 74 -42 101 -57 115 -66 110 -65 139 -34 14 15 26
31 26 35 0 4 51 59 113 122 93 95 157 153 242 216 21 16 97 64 129 81 18 11
42 24 52 30 97 54 284 117 434 146 104 20 349 21 455 1 17 -3 44 -8 60 -11
218 -40 474 -159 660 -308 68 -55 215 -202 215 -216 0 -6 4 -11 9 -11 8 0 97
-128 154 -221 16 -27 97 -212 102 -233 1 -6 5 -18 8 -26 7 -17 27 -94 33 -125
2 -11 6 -31 9 -45 15 -70 19 -128 20 -265 0 -161 -8 -248 -30 -335 -8 -30 -16
-66 -19 -80 -3 -14 -8 -35 -12 -47 -3 -13 -4 -23 -1 -23 3 0 15 30 27 68 11
37 24 74 27 82 3 8 7 17 8 20 2 9 15 64 21 90 3 14 6 30 8 35 9 32 16 64 21
97 3 21 8 62 12 90 9 67 9 374 0 449 -4 30 -12 80 -18 110 -5 30 -12 65 -15
79 -3 14 -8 34 -11 45 -7 22 -10 30 -16 61 -25 106 -126 335 -206 466 -29 46
-57 92 -64 103 -6 11 -14 22 -17 25 -3 3 -24 30 -47 60 -172 224 -395 414
-648 549 -156 84 -406 174 -550 198 -16 3 -37 7 -45 8 -8 2 -18 4 -22 4 -4 1
3 31 17 67 29 76 72 230 81 289 3 22 7 42 9 45 9 15 19 163 19 290 1 201 -8
284 -48 465 -31 145 -101 329 -181 481 -44 84 -137 236 -155 254 -3 3 -31 37
-62 75 -214 266 -511 480 -823 594 -49 18 -101 37 -115 42 -14 5 -34 11 -45
14 -11 2 -56 13 -100 25 -126 32 -171 33 -65 1z"/>
<path d="M3080 6779 c-145 -33 -377 -112 -392 -134 -4 -5 -8 -7 -8 -2 0 8
-137 -63 -213 -109 -55 -34 -121 -78 -127 -84 -3 -3 -25 -21 -50 -40 -108 -84
-223 -198 -308 -307 -34 -43 -67 -84 -73 -91 -48 -57 -209 -357 -209 -389 0
-7 -5 -13 -10 -13 -6 0 -9 -3 -8 -7 1 -5 -6 -33 -17 -63 -11 -30 -20 -57 -20
-60 -1 -3 -11 -36 -22 -75 -19 -62 -30 -108 -49 -211 -37 -192 -36 -514 1
-694 3 -14 7 -36 10 -50 13 -66 48 -199 69 -259 18 -49 14 -61 -17 -61 -18 0
-70 -10 -182 -34 -96 -21 -316 -109 -417 -167 -40 -23 -82 -47 -93 -53 -106
-61 -234 -164 -355 -286 -139 -139 -173 -180 -275 -336 -60 -92 -160 -282
-169 -324 -1 -3 -14 -36 -28 -75 -23 -59 -33 -91 -54 -170 -11 -39 -41 -186
-50 -237 -10 -61 -12 -403 -3 -468 15 -109 19 -135 24 -158 3 -12 7 -32 10
-44 16 -76 27 -125 32 -138 8 -21 11 -31 18 -62 9 -43 25 -81 32 -75 3 3 2 14
-2 24 -4 10 -9 27 -11 38 -1 11 -9 52 -18 90 -54 254 -33 555 55 803 37 105
153 327 189 362 3 3 18 23 35 45 79 107 181 205 322 311 73 54 214 130 331
178 68 27 243 75 299 81 21 2 58 7 83 11 106 16 318 7 446 -20 69 -15 230 -63
249 -74 6 -4 12 -7 15 -7 35 -5 223 -112 320 -183 99 -73 229 -195 305 -288
17 -20 42 -50 56 -67 l25 -30 127 74 127 74 -6 35 c-9 45 -10 184 -3 230 11
64 61 153 116 208 52 51 144 104 203 117 l30 7 0 154 c0 140 -2 154 -17 155
-10 0 -27 2 -38 5 -11 2 -33 6 -50 8 -59 9 -131 26 -200 46 -38 11 -77 22 -85
24 -89 23 -340 150 -407 206 -7 5 -15 10 -18 10 -4 0 -12 6 -19 13 -8 6 -35
30 -61 52 -174 146 -321 344 -399 542 -13 32 -27 67 -31 78 -4 11 -9 25 -11
30 -35 118 -41 143 -50 199 -3 22 -7 43 -9 46 -8 12 -16 149 -16 250 0 103 2
125 22 245 17 104 21 120 30 136 4 9 11 29 13 45 9 48 64 182 112 273 114 215
307 422 512 549 114 70 404 192 458 192 7 0 16 5 19 10 8 12 9 12 -95 -11z"/>
<path d="M3589 4946 c-2 -2 -69 -6 -149 -9 -80 -4 -154 -8 -165 -11 -11 -2
-40 -7 -65 -11 -47 -8 -64 -11 -102 -21 -13 -3 -34 -7 -48 -10 -51 -10 -238
-78 -320 -116 -79 -36 -239 -125 -250 -138 -3 -3 -21 -17 -40 -30 -19 -13 -37
-25 -39 -27 -3 -2 71 -79 163 -172 l168 -168 51 34 c137 93 351 171 517 190
82 9 290 10 353 1 112 -15 166 -25 222 -40 22 -6 45 -12 50 -14 29 -6 118 -40
173 -65 34 -15 65 -28 67 -28 3 0 29 -17 58 -36 l52 -35 124 127 c217 224 198
200 175 220 -44 40 -176 123 -273 172 -142 71 -331 133 -476 155 -22 4 -53 9
-69 12 -16 3 -58 6 -92 8 -34 2 -67 7 -72 10 -5 3 -11 4 -13 2z"/>
<path d="M1666 3262 c-15 -48 -22 -283 -12 -387 4 -43 16 -128 23 -160 2 -11
6 -31 9 -45 23 -114 77 -269 141 -400 30 -63 59 -116 64 -118 5 -2 9 -8 9 -13
0 -14 88 -143 150 -220 164 -204 379 -379 608 -494 50 -25 95 -45 100 -45 8 0
22 33 21 50 0 3 5 19 11 35 7 17 13 37 15 45 2 8 8 35 15 60 7 25 14 52 16 60
2 8 15 55 29 105 14 49 25 92 25 96 0 3 -19 13 -42 24 -24 10 -80 42 -126 72
-155 100 -294 246 -399 420 -51 84 -127 251 -139 306 -1 4 -2 8 -4 10 -1 1 -3
9 -6 17 -2 8 -10 40 -19 70 -26 94 -42 208 -44 313 -1 56 -4 103 -5 105 -2 1
-14 5 -27 8 -80 19 -92 22 -199 49 -36 9 -73 17 -82 18 -10 1 -18 5 -18 10 0
4 -4 6 -8 3 -5 -3 -29 1 -55 9 -42 12 -47 12 -51 -3z"/>
<path d="M5140 3213 c-113 -30 -211 -55 -217 -55 -10 -1 -12 -27 -9 -101 8
-251 -70 -509 -227 -752 -28 -44 -55 -82 -58 -85 -3 -3 -30 -34 -59 -69 -80
-97 -251 -251 -279 -251 -6 0 -11 -3 -11 -7 0 -5 -31 -25 -69 -47 l-69 -39 13
-46 c8 -25 26 -86 40 -136 15 -49 31 -106 36 -125 6 -19 11 -39 13 -45 2 -5 7
-25 11 -43 10 -42 19 -47 50 -26 14 9 25 14 25 10 0 -6 180 83 190 94 3 3 30
21 60 40 151 95 303 239 426 405 104 140 97 129 169 270 141 277 203 541 203
857 -1 172 -5 209 -22 207 -6 -1 -103 -26 -216 -56z"/>
<path d="M3804 2733 c-27 -24 -59 -46 -71 -49 -13 -4 -23 -10 -23 -14 0 -15
-135 -53 -195 -55 -110 -3 -223 40 -309 119 l-38 36 -129 -73 c-70 -39 -128
-77 -129 -82 0 -6 14 -46 31 -90 79 -205 114 -396 113 -610 -2 -201 -24 -333
-84 -495 -32 -88 -91 -214 -102 -218 -4 -2 -8 -8 -8 -13 0 -14 -74 -123 -128
-189 -60 -73 -176 -185 -248 -240 -33 -25 -60 -48 -62 -52 -2 -5 -7 -8 -12 -8
-4 0 -38 -18 -74 -40 -78 -47 -173 -94 -224 -111 -20 -6 -41 -15 -47 -19 -10
-7 -160 -49 -204 -56 -14 -3 -33 -7 -41 -9 -110 -30 -457 -24 -572 11 -10 3
-28 7 -40 9 -104 20 -443 170 -455 202 -3 7 -10 13 -15 13 -12 0 -117 79 -167
126 -20 18 -45 41 -56 51 -11 10 -35 35 -53 56 -50 59 -38 32 17 -37 65 -82
213 -222 309 -294 42 -31 78 -60 80 -64 2 -5 10 -8 18 -8 8 0 14 -4 14 -9 0
-5 8 -11 17 -14 19 -6 74 -38 83 -47 3 -4 49 -27 103 -54 125 -60 254 -107
387 -139 101 -25 123 -29 235 -45 106 -14 506 -5 535 13 3 2 26 6 50 10 262
38 654 211 869 385 96 77 130 109 228 208 107 110 112 113 123 91 32 -59 212
-236 336 -329 51 -39 95 -70 98 -70 3 0 33 -18 67 -40 34 -22 68 -40 75 -40 7
0 14 -3 16 -8 5 -11 160 -80 258 -114 94 -33 241 -72 310 -83 25 -4 54 -9 65
-11 124 -24 500 -24 595 1 8 2 31 6 50 9 19 3 46 8 60 11 32 8 60 14 85 19 46
10 210 67 289 101 116 50 299 155 386 222 122 94 380 341 380 363 0 5 -27 -18
-61 -52 -33 -33 -98 -89 -142 -124 -45 -35 -86 -67 -92 -72 -5 -4 -51 -32
-102 -61 -186 -107 -388 -174 -593 -196 -66 -8 -251 -7 -300 0 -19 3 -42 6
-50 7 -14 0 -80 12 -125 22 -11 2 -40 10 -65 17 -25 7 -49 13 -55 15 -57 13
-260 103 -330 146 -279 172 -483 405 -608 693 -34 78 -82 234 -92 299 -16 96
-19 139 -19 266 -1 206 19 335 77 510 12 36 21 68 22 72 0 3 3 10 8 14 4 4 7
14 7 22 0 8 7 30 16 49 20 42 18 45 -76 96 -36 19 -88 48 -116 65 l-51 30 -49
-45z"/>
<path d="M130 1470 c6 -11 13 -20 16 -20 2 0 0 9 -6 20 -6 11 -13 20 -16 20
-2 0 0 -9 6 -20z"/>
<path d="M6615 989 c-4 -6 -5 -12 -2 -15 2 -3 7 2 10 11 7 17 1 20 -8 4z"/>
</g>
</svg>
